<svg width="94" height="94" fill="none" xmlns="http://www.w3.org/2000/svg"><g filter="url(#a)"><path d="M74.36 11.148C67.01 4.829 57.455 1 47 1 23.804 1 5 19.804 5 43c0 10.455 3.828 20.009 10.148 27.36" stroke="#70CF29" stroke-miterlimit="10"/><path d="M19.373 74.621C26.759 81.078 36.418 85 47 85c23.196 0 42-18.804 42-42 0-10.581-3.922-20.241-10.379-27.626" stroke="#3FA9F5" stroke-miterlimit="10"/><path d="M48 38h11.98l8.763-7.775L59.96 23H48v-3h-2v3H29v15h17v5H35.86l-8.764 7.755L35.88 58H46v7H36v2h23v-2H48v-7h18V43H48v-5ZM31 25h28.242l6.423 5.282L59.221 36h-28.22V25Zm33 20v11H36.6l-6.425-5.299L36.618 45H64Z" fill="#3FA9F5"/></g><defs><filter id="a" x=".5" y=".5" width="93" height="93" filterUnits="userSpaceOnUse" color-interpolation-filters="sRGB"><feFlood flood-opacity="0" result="BackgroundImageFix"/><feColorMatrix in="SourceAlpha" values="0 0 0 0 0 0 0 0 0 0 0 0 0 0 0 0 0 0 127 0" result="hardAlpha"/><feOffset dy="4"/><feGaussianBlur stdDeviation="2"/><feComposite in2="hardAlpha" operator="out"/><feColorMatrix values="0 0 0 0 0 0 0 0 0 0 0 0 0 0 0 0 0 0 0.25 0"/><feBlend in2="BackgroundImageFix" result="effect1_dropShadow_205:233"/><feBlend in="SourceGraphic" in2="effect1_dropShadow_205:233" result="shape"/></filter></defs></svg>